<svg width="211" height="72" viewBox="0 0 211 72" fill="none" xmlns="http://www.w3.org/2000/svg">
<path d="M52.4072 56.0698H0V20.5182C0 19.516 0.820001 18.696 1.82222 18.696C2.82445 18.696 3.64445 19.516 3.64445 20.5182V52.4254H52.4072C53.4094 52.4254 54.2294 53.2454 54.2294 54.2476C54.2294 55.2498 53.4094 56.0698 52.4072 56.0698Z" fill="#4CAF50"/>
<path d="M52.4073 56.0698C42.1117 56.0698 33.7295 47.6876 33.7295 37.392C33.7295 27.0965 42.1117 18.7142 52.4073 18.7142C62.7029 18.7142 71.0851 27.0965 71.0851 37.392C71.0851 38.3943 70.2651 39.2143 69.2629 39.2143H52.4073V35.5698H67.3313C66.4202 28.1351 60.0789 22.3587 52.4073 22.3587C44.1162 22.3587 37.3739 29.1009 37.3739 37.392C37.3739 45.6832 44.1162 52.4254 52.4073 52.4254V56.0698Z" fill="#4CAF50"/>
<path d="M122.818 58.0743C121.816 58.0743 120.996 57.2543 120.996 56.2521V1.82222C120.996 0.820001 121.816 0 122.818 0C123.821 0 124.641 0.820001 124.641 1.82222V56.2521C124.641 57.2543 123.821 58.0743 122.818 58.0743Z" fill="#4CAF50"/>
<path d="M77.8818 71.1943C77.5902 71.1943 77.2987 71.1214 77.0253 70.9756C76.424 70.6659 76.0596 70.0463 76.0596 69.3721V37.3556H79.704V65.9098L104.085 49.1454L106.144 52.1521L78.9205 70.8845C78.6107 71.085 78.2462 71.1943 77.8818 71.1943Z" fill="#4CAF50"/>
<path d="M150.278 56.0516C139.983 56.0516 131.601 47.6694 131.601 37.3738C131.601 27.0782 139.983 18.696 150.278 18.696C160.574 18.696 168.956 27.0782 168.956 37.3738C168.974 47.6876 160.592 56.0516 150.278 56.0516ZM150.278 22.3405C141.987 22.3405 135.245 29.0827 135.245 37.3738C135.245 45.6649 141.987 52.4072 150.278 52.4072C158.57 52.4072 165.312 45.6649 165.312 37.3738C165.312 29.0827 158.57 22.3405 150.278 22.3405Z" fill="#4CAF50"/>
<path d="M94.7374 56.0334C84.4418 56.0334 76.0596 47.6512 76.0596 37.3556C76.0596 27.06 84.4418 18.6778 94.7374 18.6778C105.033 18.6778 113.415 27.06 113.415 37.3556C113.433 47.6694 105.051 56.0334 94.7374 56.0334ZM94.7374 22.3222C86.4462 22.3222 79.704 29.0645 79.704 37.3556C79.704 45.6467 86.4462 52.3889 94.7374 52.3889C103.028 52.3889 109.771 45.6467 109.771 37.3556C109.771 29.0645 103.028 22.3222 94.7374 22.3222Z" fill="#4CAF50"/>
<path d="M167.152 58.0743C166.15 58.0743 165.33 57.2543 165.33 56.2521V37.3738C165.33 36.3716 166.15 35.5516 167.152 35.5516C168.155 35.5516 168.975 36.3716 168.975 37.3738V56.2521C168.975 57.2543 168.155 58.0743 167.152 58.0743Z" fill="#4CAF50"/>
<path d="M52.4076 40.7267C54.2593 40.7267 55.7605 39.2256 55.7605 37.3738C55.7605 35.5221 54.2593 34.0209 52.4076 34.0209C50.5558 34.0209 49.0547 35.5221 49.0547 37.3738C49.0547 39.2256 50.5558 40.7267 52.4076 40.7267Z" fill="#4CAF50"/>
<path d="M94.7377 40.7267C96.5894 40.7267 98.0906 39.2256 98.0906 37.3738C98.0906 35.5221 96.5894 34.0209 94.7377 34.0209C92.8859 34.0209 91.3848 35.5221 91.3848 37.3738C91.3848 39.2256 92.8859 40.7267 94.7377 40.7267Z" fill="#4CAF50"/>
<path d="M150.097 40.7085C151.949 40.7085 153.45 39.2074 153.45 37.3556C153.45 35.5039 151.949 34.0027 150.097 34.0027C148.245 34.0027 146.744 35.5039 146.744 37.3556C146.744 39.2074 148.245 40.7085 150.097 40.7085Z" fill="#4CAF50"/>
<path d="M192.755 39.9432L174.205 21.7938C173.494 21.0831 173.476 19.9351 174.168 19.2245C174.861 18.5138 176.027 18.4956 176.738 19.188L192.682 34.768L207.879 19.2062C208.59 18.4774 209.738 18.4774 210.449 19.1698C211.178 19.8805 211.178 21.0285 210.485 21.7391L192.755 39.9432Z" fill="#4CAF50"/>
<path d="M192.336 58.0743C191.334 58.0743 190.514 57.2543 190.514 56.2521V37.3556C190.514 36.3534 191.334 35.5334 192.336 35.5334C193.338 35.5334 194.158 36.3534 194.158 37.3556V56.2521C194.158 57.2543 193.338 58.0743 192.336 58.0743Z" fill="#4CAF50"/>
</svg>
